<?xml version="1.0" standalone="no"?>
<!DOCTYPE svg PUBLIC "-//W3C//DTD SVG 20010904//EN"
 "http://www.w3.org/TR/2001/REC-SVG-20010904/DTD/svg10.dtd">
<svg version="1.0" xmlns="http://www.w3.org/2000/svg"
 width="260.000000pt" height="260.000000pt" viewBox="0 0 260.000000 260.000000"
 preserveAspectRatio="xMidYMid meet">
<metadata>
Created by potrace 1.11, written by Peter Selinger 2001-2013
</metadata>
<g transform="translate(0.000000,260.000000) scale(0.100000,-0.100000)"
fill="#000000" stroke="none">
<path d="M924 1771 c3 -4 24 -11 46 -14 47 -6 65 -19 88 -61 9 -17 81 -220
161 -451 121 -349 149 -420 165 -420 14 0 42 61 144 318 69 174 128 315 131
311 3 -3 51 -146 106 -317 82 -256 104 -312 118 -312 14 0 54 86 188 415 93
228 181 431 194 451 17 26 38 42 72 55 26 9 52 21 58 26 5 4 -71 8 -168 8 -97
0 -177 -2 -177 -4 0 -3 24 -12 53 -21 77 -25 84 -35 69 -92 -18 -70 -186 -553
-193 -553 -8 0 -179 560 -182 595 -2 34 28 55 80 55 17 0 35 5 38 10 4 7 -75
10 -230 10 -155 0 -234 -3 -230 -10 3 -5 17 -10 31 -10 65 0 96 -41 139 -180
l17 -55 -82 -210 c-45 -115 -83 -211 -85 -213 -2 -2 -50 137 -107 308 l-103
312 24 19 c13 10 38 19 57 19 18 0 36 5 39 10 4 7 -75 10 -230 10 -130 0 -234
-4 -231 -9z"/>
<path d="M200 1304 l0 -467 223 6 c242 6 283 13 389 69 157 83 248 278 219
471 -22 144 -103 261 -228 329 -90 50 -147 58 -385 58 l-218 0 0 -466z m445
269 c130 -44 199 -192 161 -344 -21 -83 -60 -135 -127 -173 -49 -28 -64 -31
-161 -35 l-108 -3 0 286 0 286 93 0 c61 0 110 -6 142 -17z"/>
</g>
</svg>
